<svg xmlns="http://www.w3.org/2000/svg" width="256" height="256" viewBox="0 0 256 256">
  <defs>
    <radialGradient id="space" cx="35%" cy="20%" r="85%">
      <stop offset="0" stop-color="#1e3a8a"/>
      <stop offset="0.45" stop-color="#0f172a"/>
      <stop offset="1" stop-color="#020617"/>
    </radialGradient>
    <linearGradient id="planet" x1="54" y1="46" x2="204" y2="204">
      <stop offset="0" stop-color="#67e8f9"/>
      <stop offset="0.52" stop-color="#22c55e"/>
      <stop offset="1" stop-color="#334155"/>
    </linearGradient>
    <linearGradient id="card" x1="86" y1="48" x2="178" y2="194">
      <stop offset="0" stop-color="#fde68a"/>
      <stop offset="1" stop-color="#fb7185"/>
    </linearGradient>
  </defs>
  <rect width="256" height="256" rx="46" fill="url(#space)"/>
  <g opacity="0.65" fill="#e0f2fe">
    <circle cx="38" cy="52" r="3"/>
    <circle cx="211" cy="45" r="2.5"/>
    <circle cx="222" cy="157" r="2"/>
    <circle cx="47" cy="196" r="2.5"/>
    <circle cx="116" cy="28" r="2"/>
  </g>
  <circle cx="128" cy="130" r="72" fill="url(#planet)" stroke="#bae6fd" stroke-width="6"/>
  <path d="M58 119c32-18 71-17 138 2" fill="none" stroke="#0f766e" stroke-width="13" stroke-linecap="round" opacity="0.65"/>
  <path d="M79 164c30 18 64 19 104 4" fill="none" stroke="#14532d" stroke-width="12" stroke-linecap="round" opacity="0.75"/>
  <path d="M37 136c44 39 130 44 184-7" fill="none" stroke="#f8fafc" stroke-width="7" stroke-linecap="round" opacity="0.72"/>
  <path d="M33 135c44 48 143 54 190-14" fill="none" stroke="#38bdf8" stroke-width="2.5" stroke-linecap="round" opacity="0.9"/>
  <g transform="translate(139 39) rotate(12)">
    <rect x="0" y="0" width="58" height="88" rx="10" fill="#111827" stroke="url(#card)" stroke-width="5"/>
    <path d="M16 21h26M16 36h20" stroke="#fde68a" stroke-width="5" stroke-linecap="round"/>
    <path d="M13 61c12-11 22-11 34 0" fill="none" stroke="#fb7185" stroke-width="6" stroke-linecap="round"/>
    <circle cx="45" cy="18" r="5" fill="#fb7185"/>
  </g>
  <path d="M76 74c-17 28-10 57 17 71m34-84c-19 34-9 68 24 83m28-59c-17 20-17 42 0 62" fill="none" stroke="#020617" stroke-width="13" stroke-linecap="round" opacity="0.72"/>
  <path d="M76 74c-17 28-10 57 17 71m34-84c-19 34-9 68 24 83m28-59c-17 20-17 42 0 62" fill="none" stroke="#fef3c7" stroke-width="5" stroke-linecap="round"/>
  <circle cx="128" cy="130" r="82" fill="none" stroke="#a78bfa" stroke-width="5" opacity="0.9"/>
  <path d="M48 219h160" stroke="#38bdf8" stroke-width="5" stroke-linecap="round" opacity="0.5"/>
</svg>
